<?xml version="1.0" standalone="no"?><!DOCTYPE svg PUBLIC "-//W3C//DTD SVG 1.1//EN" "http://www.w3.org/Graphics/SVG/1.1/DTD/svg11.dtd"><svg t="1774274344912" class="icon" viewBox="0 0 1024 1024" version="1.1" xmlns="http://www.w3.org/2000/svg" p-id="4810" xmlns:xlink="http://www.w3.org/1999/xlink" width="200" height="200"><path d="M544.192 392.128l117.632 117.696a44.8 44.8 0 1 1-63.36 63.36l-41.728-41.728v381.76a44.8 44.8 0 0 1-89.6 0V531.84l-41.216 41.28a44.8 44.8 0 0 1-63.36-63.36l117.632-117.632a44.928 44.928 0 0 1 8.32-6.592c0.512-0.192 0.96-0.512 1.408-0.768a31.36 31.36 0 0 1 3.648-1.92l2.688-1.024a31.744 31.744 0 0 1 5.888-1.728 44.16 44.16 0 0 1 9.728-1.088h0.64c11.456 0 22.912 4.352 31.68 13.12zM512 68.672c67.328 0 127.36 20.992 179.968 62.912a280.768 280.768 0 0 1 100.416 155.904 291.712 291.712 0 0 1 168.576 112.064c44.16 59.2 63.936 125.632 59.2 199.424a291.072 291.072 0 0 1-93.632 199.616 291.072 291.072 0 0 1-204.608 82.24h-37.12v-89.6h36.48a204.416 204.416 0 0 0 143.68-57.792 204.416 204.416 0 0 0 65.792-140.16 205.12 205.12 0 0 0-41.6-140.096 205.056 205.056 0 0 0-121.28-79.36c-33.28-7.808-53.888-28.48-61.76-61.952A193.92 193.92 0 0 0 636.16 201.6 193.92 193.92 0 0 0 512 158.272a193.92 193.92 0 0 0-124.16 43.392 193.92 193.92 0 0 0-69.888 110.208c-7.872 33.536-28.48 54.144-61.824 61.888a205.056 205.056 0 0 0-121.216 79.36 205.12 205.12 0 0 0-41.664 139.904 204.48 204.48 0 0 0 65.6 140.224 204.288 204.288 0 0 0 143.36 57.984H339.2v89.6h-37.568a291.2 291.2 0 0 1-204.416-82.56 291.072 291.072 0 0 1-93.44-199.616 292.096 292.096 0 0 1 59.392-199.168 291.712 291.712 0 0 1 168.448-112c15.68-63.168 49.152-115.136 100.48-155.904A281.088 281.088 0 0 1 512 68.672z" fill="#122133" p-id="4811" data-spm-anchor-id="a313x.search_index.0.i0.5c0b3a81ACun4K"></path></svg>